<svg xmlns="http://www.w3.org/2000/svg" width="100%" height="100%" viewBox="0 0 633 133" version="1.1" xml:space="preserve" style="fill-rule:evenodd;clip-rule:evenodd;stroke-linejoin:round;stroke-miterlimit:1.41421;">
  <g>
    <path d="M565.926,113.013c-8.293,0 -19.883,-1.151 -27.007,-2.842c0,0 2.121,-7.458 4.143,-16.61c0,0 6.717,1.736 12.353,1.736c6.698,0 10.511,-1.933 10.511,-6.475c0,-4.016 -1.808,-5.599 -12.866,-11.726c-7.443,-4.121 -13.823,-10.671 -13.823,-20.601c0,-15.53 13.398,-23.665 33.175,-23.665c10.208,0 18.253,2.301 20.949,3.165c0,0 -2.071,7.594 -3.596,14.807c0,0 -3.207,-0.751 -6.614,-0.751c-4.04,0 -7.868,1.69 -7.868,5.81c0,3.381 4.572,6.022 11.27,9.93c7.549,4.437 15.737,10.142 15.737,21.763c0,17.642 -15.312,25.459 -36.364,25.459Zm-38.15,-2.824l-49.015,1.267l-1.488,-75.694l50.539,-1.374c0.431,8.532 1.401,19.122 1.401,19.122l-20.786,1.478l-0.319,10.62l18.586,-0.223l-0.26,15.963l-18.79,0.596l0.145,11.026l22.259,0.091c-1.602,11.11 -2.272,17.128 -2.272,17.128Zm-64.686,0.477l-28.602,0.74l-0.639,-35.34c-6.698,9.825 -12.971,18.774 -19.776,29.127l-1.158,0.312l-18.3,-27.748l-1.275,32.859c0,0 -10.217,-1.32 -18.587,-1.952l-1.191,-72.324c0,0 18.915,-1.043 29.135,-1.848c7.343,12.305 17.437,31.01 17.437,31.01c6.906,-12.955 13.291,-28.739 13.291,-28.739c0,0 16.24,-0.716 31.685,-2.325c0,0 -1.425,49.994 -2.02,76.228Zm-125.688,1.185c-1.619,-4.911 -3.987,-11.749 -3.987,-11.749l-24.8,1.324c0,0 -2.097,5.969 -3.345,9.285l-15.693,-2.877l27.841,-71.767c10.84,-0.895 19.892,-2.074 19.892,-2.074l29.627,74.221c-14.085,1.457 -29.535,3.637 -29.535,3.637Zm-83.301,0.108c-23.924,0 -44.442,-10.776 -44.442,-38.982c0,-26.834 25.622,-39.092 48.164,-39.092c7.655,0 13.609,0.951 15.842,1.374c0,0 -2.313,11.1 -3.352,19.111c0,0 -3.391,-0.691 -6.11,-0.73c-13.821,-0.192 -23.499,3.174 -23.499,20.71c0,12.573 5.529,19.967 18.607,19.967c0,0 -0.021,-11.958 -0.478,-19.629c11.394,-1.766 23.473,-4.427 23.473,-4.427c0.234,21.245 1.247,36.416 1.247,36.416c-4.784,2.007 -15.949,5.282 -29.452,5.282Zm363.793,-89.505l-378.446,0.18l5.187,-12.262c0,0 -19.095,-4.825 -34.9,-10.152l-18.982,54.625c-4.788,-11.442 -9.463,-24.256 -12.221,-31.812l-27.754,3.023c7.637,13.991 27.012,53.741 31.752,65.156c-0.101,15.436 -1.24,26.959 -2.018,37.796l33.289,3.992l0.133,-9.475l399.019,0c7.337,-21.77 19.901,-54.358 19.901,-54.358l-14.96,-46.713Zm-296.715,42.832l7.263,19.283l-14.188,1.195l6.925,-20.478Zm-237.957,28.617c0,23.32 -20.21,33.654 -47.997,33.654c-10.947,0 -19.936,-0.573 -31.658,-3.018c2.347,-10.055 3.906,-22.438 3.906,-22.438c2.007,0.528 7.954,1.434 13.999,1.717c8.831,0.413 13.753,-2.235 13.753,-8.239c0,-5.307 -2.386,-7.4 -16.982,-15.5c-9.824,-5.446 -18.243,-14.105 -18.243,-27.231c0,-20.528 17.683,-31.281 43.785,-31.281c13.473,0 24.609,1.682 27.556,2.24c-3.614,12.927 -4.624,21.259 -4.624,21.259c0,0 -2.862,-0.736 -8.757,-0.736c-5.333,0 -10.386,2.233 -10.386,7.681c0,4.468 6.036,7.959 14.877,13.126c9.964,5.865 20.771,13.406 20.771,28.766Zm32.469,-11.966l2.399,-16.251l5.72,14.795l-8.119,1.456Zm-9.813,-39.683l-17.511,72.346l21.272,0.396l2.856,-15.825l17.895,-2.325c0,0 5.275,13.825 6.807,17.444c8.249,-0.983 30.343,-3.619 30.343,-3.619l-28.013,-74.44c-13.55,3.378 -22.798,4.538 -33.649,6.023Z" style="fill:#fff;fill-rule:nonzero;"/>
  </g>
</svg>